<svg xmlns="http://www.w3.org/2000/svg" viewBox="0 0 240 44" fill="none">
  <defs>
    <linearGradient id="brand-grad-dark" x1="0" y1="0" x2="40" y2="40" gradientUnits="userSpaceOnUse">
      <stop offset="0%" stop-color="#3B82F6"/>
      <stop offset="100%" stop-color="#6366F1"/>
    </linearGradient>
    <linearGradient id="spark-grad-dark" x1="18" y1="12" x2="32" y2="26" gradientUnits="userSpaceOnUse">
      <stop offset="0%" stop-color="#38BDF8"/>
      <stop offset="100%" stop-color="#A5B4FC"/>
    </linearGradient>
  </defs>
  <g transform="translate(2, 2)">
    <rect x="6" y="5" width="22" height="30" rx="4" fill="url(#brand-grad-dark)" />
    <rect x="11" y="11" width="8" height="2" rx="1" fill="#FFFFFF" fill-opacity="0.9" />
    <rect x="11" y="16" width="12" height="2" rx="1" fill="#FFFFFF" fill-opacity="0.7" />
    <rect x="11" y="21" width="9" height="2" rx="1" fill="#FFFFFF" fill-opacity="0.7" />
    <rect x="11" y="26" width="6" height="2" rx="1" fill="#FFFFFF" fill-opacity="0.5" />
    <circle cx="28" cy="26" r="8" fill="#1E293B" />
    <path d="M28 20L29.6 24.4L34 26L29.6 27.6L28 32L26.4 27.6L22 26L26.4 24.4L28 20Z" fill="url(#spark-grad-dark)" />
  </g>
  <text x="48" y="27" font-family="Inter, -apple-system, BlinkMacSystemFont, 'Segoe UI', Roboto, sans-serif" font-size="20" font-weight="800" fill="#FFFFFF" letter-spacing="-0.5">Digi<tspan fill="#60A5FA">DARA</tspan></text>
  <rect x="156" y="12" width="68" height="20" rx="10" fill="#1E293B" stroke="#3B82F6" stroke-width="1"/>
  <text x="190" y="26" font-family="Inter, -apple-system, BlinkMacSystemFont, 'Segoe UI', Roboto, sans-serif" font-size="11" font-weight="700" fill="#93C5FD" text-anchor="middle" letter-spacing="0.5">AI RESUME</text>
</svg>
